<svg width="1920" height="898" viewBox="0 0 1920 898" fill="none" xmlns="http://www.w3.org/2000/svg">
<path d="M-184.413 514.812C-129.77 481.161 103.491 216.273 977.973 364.915C1852.46 513.557 2092.77 400.428 2197.34 151.598" stroke="url(#paint0_linear_1_1811)" stroke-width="1.11256" stroke-miterlimit="10"/>
<path d="M-183.95 505.563C-131.906 473.496 107.524 221.811 974.74 373.943C1841.96 526.075 2088.61 380.712 2188.29 143.685" stroke="url(#paint1_linear_1_1811)" stroke-width="1.11256" stroke-miterlimit="10"/>
<path d="M-183.441 496.323C-134.005 465.86 111.534 227.46 971.6 383.366C1831.67 539.271 2084.66 361.737 2179.35 136.556" stroke="url(#paint2_linear_1_1811)" stroke-width="1.11256" stroke-miterlimit="10"/>
<path d="M-182.932 487.073C-136.092 458.212 115.533 233.112 968.46 392.779C1821.39 552.446 2080.71 342.752 2170.41 129.429" stroke="url(#paint3_linear_1_1811)" stroke-width="1.11256" stroke-miterlimit="10"/>
<path d="M-182.424 477.819C-138.192 450.562 119.541 238.747 965.318 402.178C1811.09 565.608 2076.76 323.753 2161.47 122.276" stroke="url(#paint4_linear_1_1811)" stroke-width="1.11256" stroke-miterlimit="10"/>
<path d="M-181.926 468.58C-140.29 442.926 123.541 244.409 962.156 411.604C1800.77 578.798 2072.78 304.78 2152.51 115.162" stroke="url(#paint5_linear_1_1811)" stroke-width="1.11256" stroke-miterlimit="10"/>
<path d="M-181.418 459.326C-142.389 435.276 127.551 250.055 959.016 421.013C1790.48 591.97 2068.83 285.791 2143.57 108.02" stroke="url(#paint6_linear_1_1811)" stroke-width="1.11256" stroke-miterlimit="10"/>
<path d="M-180.91 450.076C-144.477 427.628 131.56 255.694 955.874 430.415C1780.19 605.136 2064.88 266.796 2134.63 100.881" stroke="url(#paint7_linear_1_1811)" stroke-width="1.11256" stroke-miterlimit="10"/>
<path d="M-180.402 440.822C-146.576 419.978 135.558 261.342 952.734 439.824C1769.91 618.307 2060.91 247.808 2125.71 93.738" stroke="url(#paint8_linear_1_1811)" stroke-width="1.11256" stroke-miterlimit="10"/>
<path d="M-179.893 431.582C-148.663 412.341 139.568 266.991 949.583 449.249C1759.6 631.506 2056.95 228.835 2116.76 86.6219" stroke="url(#paint9_linear_1_1811)" stroke-width="1.11256" stroke-miterlimit="10"/>
<path d="M-179.385 422.33C-150.762 404.693 143.578 272.64 946.441 458.649C1749.3 644.659 2052.99 209.837 2107.82 79.4712" stroke="url(#paint10_linear_1_1811)" stroke-width="1.11256" stroke-miterlimit="10"/>
<path d="M-178.888 413.079C-152.872 397.046 147.564 278.279 943.29 468.061C1739.02 657.844 2049.03 190.851 2098.87 72.3428" stroke="url(#paint11_linear_1_1811)" stroke-width="1.11256" stroke-miterlimit="10"/>
<path d="M-178.379 403.837C-154.959 389.407 151.576 283.938 940.151 477.483C1728.73 671.028 2045.08 171.875 2089.93 65.2131" stroke="url(#paint12_linear_1_1811)" stroke-width="1.11256" stroke-miterlimit="10"/>
<path d="M-177.871 394.583C-157.058 381.757 155.584 289.573 936.997 486.883C1718.41 684.193 2041.12 152.887 2080.98 58.0725" stroke="url(#paint13_linear_1_1811)" stroke-width="1.11256" stroke-miterlimit="10"/>
<path d="M-177.363 385.332C-159.146 374.108 159.594 295.223 933.857 496.295C1708.12 697.368 2037.15 133.903 2072.04 50.9336" stroke="url(#paint14_linear_1_1811)" stroke-width="1.11256" stroke-miterlimit="10"/>
<path d="M-176.854 376.089C-161.244 366.469 163.593 300.871 930.718 505.716C1697.84 710.561 2033.2 114.925 2063.11 43.8131" stroke="url(#paint15_linear_1_1811)" stroke-width="1.11256" stroke-miterlimit="10"/>
<path d="M-176.346 366.839C-163.332 358.822 167.603 306.52 927.577 515.128C1687.55 723.736 2029.24 95.9301 2054.15 36.676" stroke="url(#paint16_linear_1_1811)" stroke-width="1.11256" stroke-miterlimit="10"/>
<path d="M-175.85 357.589C-165.443 351.176 171.601 312.171 924.412 524.533C1677.22 736.894 2025.28 76.9444 2045.22 29.5371" stroke="url(#paint17_linear_1_1811)" stroke-width="1.11256" stroke-miterlimit="10"/>
<path d="M-175.341 348.337C-167.53 343.526 175.599 317.809 921.273 533.944C1666.95 750.078 2021.32 57.9584 2036.27 22.4086" stroke="url(#paint18_linear_1_1811)" stroke-width="1.11256" stroke-miterlimit="10"/>
<path d="M-174.833 339.093C-169.629 335.887 179.609 323.466 918.133 543.364C1656.66 763.261 2017.37 38.9698 2027.33 15.2668" stroke="url(#paint19_linear_1_1811)" stroke-width="1.11256" stroke-miterlimit="10"/>
<path d="M-174.324 329.844C-171.716 328.241 183.619 329.107 914.992 552.767C1646.37 776.427 2013.4 19.9873 2018.39 8.14049" stroke="url(#paint20_linear_1_1811)" stroke-width="1.11256" stroke-miterlimit="10"/>
<path d="M-173.817 320.591C-173.817 320.591 187.628 334.753 911.839 562.178C1636.05 789.602 2009.44 0.999962 2009.44 0.999962" stroke="#FCEE21" stroke-width="1.11256" stroke-miterlimit="10"/>
<path d="M-168.166 337.255C-166.987 335.716 199.376 321.941 911.223 547.866C1623.07 773.791 1994.69 42.014 2012.57 35.0533" stroke="#FBE421" stroke-width="1.11256" stroke-miterlimit="10"/>
<path d="M-162.515 353.932C-160.156 350.855 211.137 309.152 910.609 533.579C1610.08 758.006 1979.96 83.0296 2015.7 69.1095" stroke="#FBDA21" stroke-width="1.11256" stroke-miterlimit="10"/>
<path d="M-156.863 370.599C-153.325 365.983 222.899 296.353 909.982 519.271C1597.07 742.19 1965.21 124.025 2018.84 103.166" stroke="#FAD021" stroke-width="1.11256" stroke-miterlimit="10"/>
<path d="M-151.214 387.261C-146.508 381.107 234.657 283.537 909.366 504.968C1584.08 726.4 1950.45 165.038 2021.96 137.218" stroke="#F9C622" stroke-width="1.11256" stroke-miterlimit="10"/>
<path d="M-145.563 403.929C-139.678 396.236 246.418 270.739 908.75 490.661C1571.08 710.583 1935.71 206.046 2025.09 171.265" stroke="#F8BC22" stroke-width="1.11256" stroke-miterlimit="10"/>
<path d="M-139.901 420.593C-132.836 411.362 258.178 257.927 908.136 476.361C1558.09 694.796 1920.97 247.06 2028.22 205.319" stroke="#F8B222" stroke-width="1.11256" stroke-miterlimit="10"/>
<path d="M-134.252 437.255C-126.008 426.485 269.937 245.123 907.519 462.059C1545.1 678.995 1906.22 288.062 2031.35 239.371" stroke="#F7A822" stroke-width="1.11256" stroke-miterlimit="10"/>
<path d="M-128.6 453.922C-119.177 441.613 281.697 232.312 906.904 447.75C1532.11 663.188 1891.48 329.068 2034.47 273.418" stroke="#F69E22" stroke-width="1.11256" stroke-miterlimit="10"/>
<path d="M-122.949 470.597C-112.347 456.75 293.458 219.521 906.288 433.45C1519.12 647.379 1876.73 370.083 2037.61 307.472" stroke="#F69422" stroke-width="1.11256" stroke-miterlimit="10"/>
<path d="M-117.299 487.263C-105.516 471.877 305.219 206.72 905.662 419.152C1506.11 631.584 1861.99 411.098 2040.73 341.528" stroke="#F58A22" stroke-width="1.11256" stroke-miterlimit="10"/>
<path d="M-111.648 503.929C-98.6865 487.005 316.978 193.91 905.046 404.843C1493.11 615.777 1847.24 452.094 2043.86 375.574" stroke="#F48023" stroke-width="1.11256" stroke-miterlimit="10"/>
<path d="M-105.986 520.592C-91.8567 502.13 328.739 181.107 904.442 390.541C1480.15 599.975 1832.5 493.107 2047 409.637" stroke="#F37623" stroke-width="1.11256" stroke-miterlimit="10"/>
<path d="M-100.336 537.258C-85.0271 517.258 340.498 168.296 903.814 376.233C1467.13 584.17 1817.75 534.113 2050.12 443.683" stroke="#F36C23" stroke-width="1.11256" stroke-miterlimit="10"/>
<path d="M-94.6856 553.927C-78.1976 532.387 352.258 155.498 903.199 361.937C1454.14 568.375 1803.01 575.131 2053.26 477.741" stroke="#F26223" stroke-width="1.11256" stroke-miterlimit="10"/>
<path d="M-89.0351 570.589C-71.3677 547.51 364.019 142.693 902.583 347.623C1441.15 552.553 1788.26 616.121 2056.39 511.781" stroke="#F15823" stroke-width="1.11256" stroke-miterlimit="10"/>
<path d="M-83.384 587.255C-64.5372 562.638 375.779 129.882 901.957 333.326C1428.14 536.769 1773.51 657.139 2059.51 545.838" stroke="#F14E23" stroke-width="1.11256" stroke-miterlimit="10"/>
<path d="M-77.7327 603.932C-57.7067 577.776 387.529 117.094 901.341 319.027C1415.15 520.96 1758.76 698.155 2062.64 579.894" stroke="#F04423" stroke-width="1.11256" stroke-miterlimit="10"/>
<path d="M-72.0705 620.594C-50.8651 592.9 399.299 104.279 900.738 304.725C1402.18 505.17 1744.04 739.167 2065.77 613.947" stroke="#EF3A24" stroke-width="1.11256" stroke-miterlimit="10"/>
<path d="M-66.4207 637.26C-44.0473 608.029 411.059 91.4791 900.11 290.417C1389.16 489.354 1729.28 780.163 2068.89 647.993" stroke="#EE3024" stroke-width="1.11256" stroke-miterlimit="10"/>
<path d="M-60.7707 653.926C-37.218 623.156 422.82 78.6784 899.494 276.118C1376.17 473.557 1714.53 821.179 2072.02 682.048" stroke="#EE2624" stroke-width="1.11256" stroke-miterlimit="10"/>
<path d="M-55.1205 670.59C-30.3885 638.281 434.578 65.8654 898.878 261.806C1363.18 457.747 1699.78 862.182 2075.16 716.102" stroke="#ED1C24" stroke-width="1.11256" stroke-miterlimit="10"/>
<defs>
<linearGradient id="paint0_linear_1_1811" x1="-117.973" y1="157.719" x2="2118.33" y2="576.294" gradientUnits="userSpaceOnUse">
<stop stop-color="#FF9074"/>
<stop offset="1" stop-color="#FFE23A" stop-opacity="0.8"/>
</linearGradient>
<linearGradient id="paint1_linear_1_1811" x1="-125.299" y1="163.602" x2="2118.58" y2="551.138" gradientUnits="userSpaceOnUse">
<stop stop-color="#FF9470"/>
<stop offset="1" stop-color="#FFE339" stop-opacity="0.8095"/>
</linearGradient>
<linearGradient id="paint2_linear_1_1811" x1="-132.254" y1="169.629" x2="2118.55" y2="524.984" gradientUnits="userSpaceOnUse">
<stop stop-color="#FF996C"/>
<stop offset="1" stop-color="#FFE338" stop-opacity="0.819"/>
</linearGradient>
<linearGradient id="paint3_linear_1_1811" x1="-138.759" y1="175.786" x2="2118.23" y2="498.605" gradientUnits="userSpaceOnUse">
<stop stop-color="#FF9D68"/>
<stop offset="1" stop-color="#FFE436" stop-opacity="0.8286"/>
</linearGradient>
<linearGradient id="paint4_linear_1_1811" x1="-144.849" y1="182.024" x2="2117.12" y2="472.291" gradientUnits="userSpaceOnUse">
<stop stop-color="#FEA264"/>
<stop offset="1" stop-color="#FEE435" stop-opacity="0.8381"/>
</linearGradient>
<linearGradient id="paint5_linear_1_1811" x1="-150.467" y1="188.333" x2="2115.46" y2="445.563" gradientUnits="userSpaceOnUse">
<stop stop-color="#FEA660"/>
<stop offset="1" stop-color="#FEE534" stop-opacity="0.8476"/>
</linearGradient>
<linearGradient id="paint6_linear_1_1811" x1="-155.639" y1="194.724" x2="2113.47" y2="418.93" gradientUnits="userSpaceOnUse">
<stop stop-color="#FEAB5C"/>
<stop offset="1" stop-color="#FEE533" stop-opacity="0.8571"/>
</linearGradient>
<linearGradient id="paint7_linear_1_1811" x1="-160.342" y1="201.137" x2="2110.67" y2="391.949" gradientUnits="userSpaceOnUse">
<stop stop-color="#FEAF58"/>
<stop offset="1" stop-color="#FEE632" stop-opacity="0.8667"/>
</linearGradient>
<linearGradient id="paint8_linear_1_1811" x1="-164.575" y1="207.587" x2="2107.53" y2="364.864" gradientUnits="userSpaceOnUse">
<stop stop-color="#FEB454"/>
<stop offset="1" stop-color="#FEE730" stop-opacity="0.8762"/>
</linearGradient>
<linearGradient id="paint9_linear_1_1811" x1="-168.505" y1="216.584" x2="2103.43" y2="340.533" gradientUnits="userSpaceOnUse">
<stop stop-color="#FEB850"/>
<stop offset="1" stop-color="#FEE72F" stop-opacity="0.8857"/>
</linearGradient>
<linearGradient id="paint10_linear_1_1811" x1="-172.518" y1="241.569" x2="2098.18" y2="331.928" gradientUnits="userSpaceOnUse">
<stop stop-color="#FEBD4C"/>
<stop offset="1" stop-color="#FEE82E" stop-opacity="0.8952"/>
</linearGradient>
<linearGradient id="paint11_linear_1_1811" x1="-175.528" y1="266.501" x2="2093.13" y2="323.512" gradientUnits="userSpaceOnUse">
<stop stop-color="#FDC149"/>
<stop offset="1" stop-color="#FDE82D" stop-opacity="0.9048"/>
</linearGradient>
<linearGradient id="paint12_linear_1_1811" x1="-177.52" y1="291.297" x2="2087.79" y2="314.818" gradientUnits="userSpaceOnUse">
<stop stop-color="#FDC645"/>
<stop offset="1" stop-color="#FDE92C" stop-opacity="0.9143"/>
</linearGradient>
<linearGradient id="paint13_linear_1_1811" x1="-178.523" y1="315.956" x2="2082.65" y2="306.323" gradientUnits="userSpaceOnUse">
<stop stop-color="#FDCA41"/>
<stop offset="1" stop-color="#FDE92B" stop-opacity="0.9238"/>
</linearGradient>
<linearGradient id="paint14_linear_1_1811" x1="-178.52" y1="340.398" x2="2077.22" y2="297.561" gradientUnits="userSpaceOnUse">
<stop stop-color="#FDCF3D"/>
<stop offset="1" stop-color="#FDEA29" stop-opacity="0.9333"/>
</linearGradient>
<linearGradient id="paint15_linear_1_1811" x1="-177.528" y1="364.619" x2="2071.98" y2="288.762" gradientUnits="userSpaceOnUse">
<stop stop-color="#FDD339"/>
<stop offset="1" stop-color="#FDEB28" stop-opacity="0.9429"/>
</linearGradient>
<linearGradient id="paint16_linear_1_1811" x1="-175.594" y1="388.554" x2="2066.46" y2="280.201" gradientUnits="userSpaceOnUse">
<stop stop-color="#FDD835"/>
<stop offset="1" stop-color="#FDEB27" stop-opacity="0.9524"/>
</linearGradient>
<linearGradient id="paint17_linear_1_1811" x1="-172.685" y1="412.17" x2="2060.89" y2="271.379" gradientUnits="userSpaceOnUse">
<stop stop-color="#FDDC31"/>
<stop offset="1" stop-color="#FDEC26" stop-opacity="0.9619"/>
</linearGradient>
<linearGradient id="paint18_linear_1_1811" x1="-168.855" y1="435.463" x2="2055.51" y2="262.79" gradientUnits="userSpaceOnUse">
<stop stop-color="#FCE12D"/>
<stop offset="1" stop-color="#FCEC25" stop-opacity="0.9714"/>
</linearGradient>
<linearGradient id="paint19_linear_1_1811" x1="-164.094" y1="458.343" x2="2049.84" y2="253.958" gradientUnits="userSpaceOnUse">
<stop stop-color="#FCE529"/>
<stop offset="1" stop-color="#FCED23" stop-opacity="0.981"/>
</linearGradient>
<linearGradient id="paint20_linear_1_1811" x1="-158.452" y1="480.843" x2="2044.36" y2="245.379" gradientUnits="userSpaceOnUse">
<stop stop-color="#FCEA25"/>
<stop offset="1" stop-color="#FCED22" stop-opacity="0.9905"/>
</linearGradient>
</defs>
</svg>
