<svg width="55" height="55" viewBox="0 0 55 55" fill="none" xmlns="http://www.w3.org/2000/svg">
    <g clip-path="url(#clip0_118_15427)">
    <mask id="mask0_118_15427" style="mask-type:luminance" maskUnits="userSpaceOnUse" x="2" y="0" width="51" height="55">
    <path d="M52.5 0H2.5V55H52.5V0Z" fill="white"/>
    </mask>
    <g mask="url(#mask0_118_15427)">
    <path d="M27.5001 1.91943C40.4476 1.91943 50.9437 12.4154 50.9437 25.3629C50.9437 38.3106 40.4476 48.8066 27.5001 48.8066C14.5524 48.8066 4.05639 38.3106 4.05639 25.3629C4.05639 12.4154 14.5524 1.91943 27.5001 1.91943Z" fill="white" stroke="#005E8F" stroke-width="0.8" stroke-miterlimit="22.9256"/>
    <path fill-rule="evenodd" clip-rule="evenodd" d="M33.7386 38.1986C33.3939 39.0526 33.5261 38.8971 32.9051 39.4446C32.0104 40.2336 31.4066 41.1078 30.4791 41.1561L28.4674 41.2618C27.7879 40.7478 28.1691 40.7518 28.0706 40.1518C28.0281 39.8933 27.6026 39.1523 27.4471 38.7483C26.9616 38.4526 26.8824 37.7188 26.8041 37.1196C26.7419 36.6436 26.8171 36.5356 26.6316 36.1591C26.5119 35.9163 26.3351 35.6903 26.1796 35.4038C25.8866 34.8651 25.5186 34.4661 25.7049 33.6396C25.8349 33.0623 26.0254 32.6061 26.4364 32.2746C26.4734 31.8638 26.2969 30.8481 26.2021 30.4088C25.8929 28.9748 24.7091 28.3053 24.5879 27.8811C24.5544 27.7631 24.8119 26.4051 24.9669 26.2243L23.6466 25.7594L21.9715 25.2684C22.1918 25.0596 22.7232 24.9224 23.0804 24.8036C22.3753 24.5421 21.669 24.7674 20.9849 25.0011C20.7415 25.0844 20.5371 25.2099 20.3487 25.2616C19.804 25.4111 19.5539 25.1199 18.9326 25.2449C18.4668 25.3384 18.1288 25.5671 17.6416 25.4036L15.7505 23.9754C15.4976 23.5831 15.4154 22.9296 14.3156 22.0619C14.3822 20.4369 14.1262 21.4986 14.5641 20.5191C14.9177 19.7281 14.6737 19.3086 14.8994 18.7999C14.8192 18.5709 14.7435 18.5394 14.7288 18.3486C14.7153 18.1729 14.733 18.1946 14.7614 18.1136C14.8378 17.8954 14.8077 18.0154 14.907 17.9369C15.1611 17.3026 15.3962 17.2816 15.6984 16.7836C15.89 16.4679 15.8264 16.4591 16.0715 16.2029C16.2577 16.0081 16.3789 15.9241 16.5907 15.7794C16.7375 15.5106 16.5593 15.7146 16.9695 15.5424C17.3209 15.3949 17.1025 15.5486 17.4472 15.3194C17.8149 15.0751 17.8569 15.0021 17.9497 14.5796C18.0575 14.1161 18.2445 13.8076 18.6407 13.5466C18.8447 13.4124 18.9798 13.3891 19.1777 13.2409C19.4239 13.0564 19.3618 13.0279 19.6367 12.8349C19.7067 12.6606 19.4972 12.7919 19.7978 12.5931C20.1228 12.7676 20.3083 12.9236 20.8999 12.9074C21.2776 12.8969 21.5755 12.6606 21.9644 12.6294C22.2169 12.3539 21.8852 12.5354 22.3948 12.4169L23.8359 12.3156C24.5451 12.2969 25.0434 12.2999 25.5929 12.3479C25.4061 13.1694 25.8501 12.8596 25.2414 13.5114C26.1454 14.4171 26.3521 13.7936 26.9596 14.3081C27.3126 14.6074 27.0674 14.6164 28.2181 14.9486C28.5419 15.0421 28.1074 15.0596 28.6946 15.0171L28.8646 14.1629C29.5591 13.9496 30.7564 14.4576 31.5346 14.6186C32.7159 14.8629 32.0674 14.2489 33.4841 14.5136C34.4456 14.6934 33.6711 14.4654 34.0466 14.7689C34.3839 14.9289 34.2881 15.4771 34.1676 15.7774C33.8549 15.7091 34.0001 15.7409 33.7759 15.5519C33.5119 15.3289 33.8621 15.4939 33.4841 15.2709C33.6461 15.7879 34.5201 16.8969 34.7311 17.3536C35.2189 18.4096 35.1329 17.7611 35.4209 18.3089C35.6389 18.7239 35.5706 19.1984 35.8684 19.5454C36.2971 20.0454 36.0459 19.4254 36.4704 20.4651C36.7911 21.2511 37.4506 20.9916 38.1479 21.9936C38.5389 22.5556 38.0884 21.9609 38.2999 22.4931C38.6696 23.4229 40.1954 22.3356 41.3639 22.2409C41.5636 23.1871 41.0964 23.6581 40.8621 24.3441C40.6114 25.0791 40.2484 25.5241 39.8449 25.9571L37.7691 27.9173C36.3499 29.2511 36.8166 29.9648 36.8559 30.6133C36.8784 30.9871 36.8186 30.9273 36.9516 31.2751C37.5044 32.7198 37.0981 31.2328 37.0901 32.7491C37.0794 34.8596 35.9169 33.9666 34.6041 35.6006C34.7599 36.3868 34.8411 36.3953 34.6891 37.3191C34.1604 37.6741 33.7071 37.4648 33.7386 38.1986Z" fill="#BBBDC0"/>
    <path fill-rule="evenodd" clip-rule="evenodd" d="M31.6739 39.654C31.3591 39.2195 31.6411 38.8933 32.0259 38.9733C32.6011 39.0933 32.1484 39.5218 31.6739 39.654ZM27.4471 38.7483C27.6026 39.1523 28.0281 39.8933 28.0706 40.152C28.1691 40.752 27.7879 40.748 28.4674 41.262L30.4791 41.1563C31.4066 41.108 32.0104 40.2335 32.9051 39.4448C33.5261 38.897 33.3939 39.0525 33.7386 38.1988C33.2091 38.2058 33.4321 38.2358 33.0131 38.3158C32.9964 37.2475 33.4359 38.5298 33.4144 37.1433C33.3856 35.2705 31.3699 36.9055 30.9611 37.595C30.5566 37.6595 30.4589 37.5888 30.1154 37.5018C29.8841 37.7953 29.8019 38.0338 29.2986 38.0708C29.0044 37.5898 29.3629 37.6823 28.8449 37.2888C28.7719 37.7673 28.9246 38.5125 28.6049 38.8493C27.8036 39.2525 28.1469 38.6718 27.4471 38.7483Z" fill="#050508"/>
    <path d="M27.5001 7.79761C37.2012 7.79761 45.0655 15.6618 45.0655 25.3628C45.0655 35.064 37.2012 42.9283 27.5001 42.9283C17.7989 42.9283 9.93463 35.064 9.93463 25.3628C9.93463 15.6618 17.7989 7.79761 27.5001 7.79761Z" stroke="#005E8F" stroke-width="0.8" stroke-miterlimit="22.9256"/>
    <path fill-rule="evenodd" clip-rule="evenodd" d="M27.7607 23.2127L29.7998 16.8163L31.8042 23.2824L38.4097 25.3913L31.8913 27.5873L29.643 34.0359L27.7084 27.7267L20.9808 25.4958L27.7607 23.2127Z" fill="url(#paint0_radial_118_15427)"/>
    <path d="M14.7878 7.30138L16.1859 6.32239L16.5516 6.84538L15.6845 7.45313L16.0422 7.96413L16.9101 7.35638L17.271 7.87238L16.4031 8.47988L17.291 9.74788L16.7608 10.1191L14.7878 7.30138Z" fill="black"/>
    <path d="M17.1273 5.79291L17.7461 5.47741C18.0854 5.30491 18.3417 5.21241 18.5166 5.19966C18.6906 5.18691 18.8575 5.22766 19.0164 5.32341C19.1753 5.41916 19.3038 5.56291 19.402 5.75441C19.5042 5.95566 19.5418 6.1489 19.5146 6.3334C19.4867 6.51865 19.3933 6.69516 19.2344 6.86366L20.654 7.85665L20.016 8.18091L18.6651 7.2349L18.6108 7.2619L19.2727 8.56015L18.689 8.85715L17.1273 5.79291ZM18.3209 6.69341L18.5046 6.60016C18.6906 6.50491 18.8064 6.41566 18.8519 6.33091C18.8974 6.24716 18.891 6.14891 18.8336 6.03641C18.8 5.96916 18.7529 5.92066 18.693 5.88866C18.6331 5.85666 18.5685 5.84541 18.4998 5.85341C18.4303 5.86141 18.3178 5.9054 18.1621 5.9844L18.0016 6.06665L18.3209 6.69341Z" fill="black"/>
    <path d="M20.1039 4.41742L21.8892 3.83691L22.0872 4.44691L20.9199 4.82617L21.1115 5.41716L22.2796 5.03791L22.4737 5.63667L21.3063 6.01591L21.5858 6.87666L22.7531 6.49666L22.9519 7.10816L21.1666 7.68866L20.1039 4.41742Z" fill="black"/>
    <path d="M22.9774 3.58747L24.8266 3.26172L24.9384 3.89247L23.7289 4.10572L23.8374 4.71822L25.0461 4.50497L25.1556 5.12447L23.9469 5.33771L24.1031 6.22872L25.3129 6.01572L25.4246 6.64971L23.5746 6.97547L22.9774 3.58747Z" fill="black"/>
    <path d="M25.9644 3.16685L26.7407 3.15311C27.2404 3.14436 27.6132 3.20036 27.8592 3.31911C28.1042 3.43911 28.3079 3.63711 28.4699 3.91336C28.6329 4.18961 28.7167 4.5136 28.7239 4.8866C28.7279 5.1516 28.6887 5.39611 28.6042 5.61961C28.5202 5.84311 28.4014 6.02985 28.2487 6.17835C28.0964 6.32784 27.9302 6.43234 27.7507 6.49134C27.5709 6.55059 27.2579 6.5841 26.8124 6.5921L26.0244 6.6056L25.9644 3.16685ZM26.6272 3.78636L26.6654 5.9541L26.9697 5.9486C27.2684 5.9436 27.4847 5.90535 27.6189 5.83435C27.7522 5.76335 27.8607 5.64586 27.9437 5.48211C28.0262 5.31936 28.0659 5.11885 28.0619 4.88185C28.0557 4.51685 27.9487 4.23585 27.7402 4.0386C27.5534 3.86061 27.2564 3.77586 26.8499 3.78236L26.6272 3.78636Z" fill="black"/>
    <path d="M31.5831 3.44277C32.0621 3.52727 32.4439 3.77327 32.7271 4.18127C33.0106 4.58927 33.1081 5.04277 33.0204 5.54176C32.9331 6.03601 32.6889 6.42401 32.2889 6.70676C31.8881 6.98926 31.4456 7.0875 30.9604 7.002C30.4524 6.912 30.0611 6.66201 29.7866 6.25076C29.5126 5.84051 29.4176 5.39326 29.5031 4.90951C29.5606 4.58527 29.6916 4.30176 29.8959 4.05752C30.1004 3.81327 30.3534 3.63602 30.6554 3.52502C30.9579 3.41477 31.2669 3.38752 31.5831 3.44277ZM31.4649 4.07276C31.1519 4.01751 30.8691 4.07976 30.6176 4.26026C30.3654 4.44076 30.2096 4.69952 30.1506 5.03552C30.0844 5.41001 30.1666 5.73025 30.3966 5.99525C30.5754 6.203 30.7999 6.32976 31.0704 6.37776C31.3764 6.43126 31.6556 6.36725 31.9096 6.18375C32.1636 6.00076 32.3191 5.74701 32.3759 5.42276C32.4326 5.10101 32.3726 4.80877 32.1954 4.54702C32.0191 4.28577 31.7746 4.12776 31.4649 4.07276Z" fill="black"/>
    <path d="M35.0196 4.48499L35.6049 4.74523L35.3556 7.26022L37.0684 5.39673L37.6449 5.65373L36.7761 9.03121L36.1989 8.77496L36.7451 6.63973L35.1929 8.32697L34.6659 8.09221L34.8886 5.81347L33.6614 7.64522L33.0786 7.38572L35.0196 4.48499Z" fill="black"/>
    <path d="M40.3899 7.97689L39.7479 8.05039C39.7439 7.75814 39.6706 7.56239 39.5261 7.46089C39.4556 7.41164 39.3854 7.3909 39.3144 7.39715C39.2434 7.40365 39.1914 7.4299 39.1579 7.4769C39.1251 7.5249 39.1101 7.57989 39.1124 7.64464C39.1164 7.73164 39.1626 7.94414 39.2514 8.28189C39.3359 8.59563 39.3839 8.79039 39.3959 8.86539C39.4279 9.05164 39.4309 9.21039 39.4061 9.34214C39.3814 9.47464 39.3271 9.60014 39.2441 9.71814C39.0829 9.94964 38.8689 10.0846 38.6039 10.1239C38.3386 10.1621 38.0776 10.0919 37.8214 9.91213C37.6209 9.77163 37.4804 9.60089 37.4006 9.39814C37.3206 9.19514 37.3016 8.95164 37.3431 8.66664L37.9834 8.70989C37.9444 9.05389 38.0129 9.28789 38.1894 9.41089C38.2811 9.47539 38.3779 9.50264 38.4776 9.49314C38.5774 9.48264 38.6526 9.44289 38.7011 9.37239C38.7459 9.30864 38.7674 9.22863 38.7651 9.13138C38.7619 9.03488 38.7269 8.86389 38.6581 8.61964C38.5264 8.15489 38.4641 7.82339 38.4696 7.62464C38.4751 7.42589 38.5256 7.25889 38.6206 7.12414C38.7571 6.92839 38.9494 6.81264 39.1954 6.77764C39.4421 6.74164 39.6754 6.79989 39.8934 6.95314C40.0339 7.05139 40.1449 7.17764 40.2261 7.33164C40.3076 7.48589 40.3619 7.70064 40.3899 7.97689Z" fill="black"/>
    <path d="M16.3072 41.2241L15.694 41.2509C15.7097 40.9746 15.6529 40.7831 15.5226 40.6776C15.4595 40.6266 15.3938 40.6016 15.3254 40.6029C15.2581 40.6041 15.2071 40.6261 15.1727 40.6686C15.1378 40.7116 15.1195 40.7631 15.1174 40.8249C15.1163 40.9069 15.1459 41.1116 15.2077 41.4379C15.2666 41.7414 15.2998 41.9291 15.3062 42.0009C15.3239 42.1791 15.3166 42.3303 15.2842 42.4536C15.2514 42.5773 15.1923 42.6923 15.1054 42.7998C14.9369 43.0078 14.7256 43.1218 14.4714 43.1413C14.2177 43.1606 13.9748 43.0761 13.7436 42.8888C13.5626 42.7423 13.441 42.5706 13.3788 42.3738C13.3165 42.1758 13.3142 41.9438 13.3724 41.6766L13.9772 41.7603C13.9174 42.0836 13.967 42.3093 14.1256 42.4378C14.2087 42.5051 14.2979 42.5374 14.3936 42.5346C14.4894 42.5321 14.5624 42.4986 14.6135 42.4356C14.6603 42.3778 14.6854 42.3033 14.6897 42.2113C14.6941 42.1191 14.6714 41.9553 14.6224 41.7193C14.5287 41.2696 14.4914 40.9504 14.5099 40.7624C14.5291 40.5749 14.5872 40.4199 14.686 40.2979C14.8288 40.1216 15.0182 40.0251 15.2548 40.0079C15.4908 39.9899 15.7076 40.0611 15.9045 40.2206C16.0313 40.3231 16.1277 40.4501 16.1954 40.6014C16.262 40.7531 16.2989 40.9606 16.3072 41.2241ZM18.0648 41.6646C18.4656 41.8961 18.726 42.2398 18.8465 42.6958C18.9673 43.1528 18.9071 43.5893 18.6666 44.0058C18.428 44.4191 18.0839 44.6873 17.6344 44.8088C17.1845 44.9311 16.7573 44.8746 16.3519 44.6406C15.9275 44.3956 15.6593 44.0453 15.548 43.5886C15.4364 43.1326 15.4972 42.7026 15.7305 42.2983C15.8868 42.0278 16.0962 41.8166 16.3582 41.6649C16.6202 41.5131 16.9042 41.4368 17.2101 41.4366C17.5153 41.4358 17.8007 41.5121 18.0648 41.6646ZM17.7549 42.1891C17.4928 42.0378 17.2204 42.0013 16.9369 42.0813C16.6531 42.1601 16.4298 42.3403 16.2679 42.6208C16.0869 42.9343 16.0563 43.2468 16.1759 43.5586C16.2683 43.8021 16.4271 43.9883 16.6531 44.1188C16.9087 44.2663 17.1793 44.3001 17.4652 44.2188C17.7522 44.1376 17.9735 43.9621 18.1297 43.6916C18.2856 43.4216 18.3266 43.1411 18.253 42.8498C18.18 42.5591 18.0138 42.3386 17.7549 42.1891ZM19.6462 42.5746L20.2251 42.8083L19.4325 44.7701C19.364 44.9396 19.3305 45.0653 19.3319 45.1468C19.333 45.2291 19.3591 45.3043 19.4102 45.3741C19.4614 45.4438 19.5355 45.4976 19.6312 45.5361C19.7331 45.5773 19.8297 45.5893 19.9224 45.5728C20.0146 45.5553 20.0898 45.5168 20.1472 45.4558C20.2043 45.3953 20.2741 45.2633 20.3562 45.0598L21.1198 43.1698L21.6987 43.4038L20.9684 45.2116C20.8453 45.5161 20.7422 45.7208 20.6607 45.8253C20.5784 45.9296 20.467 46.0171 20.3256 46.0876C20.1839 46.1588 20.0394 46.1946 19.8919 46.1971C19.7439 46.1986 19.5864 46.1653 19.419 46.0976C19.1988 46.0086 19.0277 45.8813 18.9061 45.7146C18.7836 45.5481 18.7187 45.3746 18.7097 45.1941C18.7015 45.0141 18.77 44.7431 18.9158 44.3823L19.6462 42.5746ZM21.8857 43.4836L23.6464 43.8901L23.5084 44.4881L22.9282 44.3541L22.3307 46.9421L21.7156 46.8001L22.3131 44.2121L21.7476 44.0816L21.8857 43.4836ZM23.7439 43.9271L24.3689 44.0148L24.1972 45.2363L25.2804 45.3886L25.4522 44.1671L26.0749 44.2546L25.6199 47.4926L24.9972 47.4051L25.1967 45.9851L24.1134 45.8328L23.9139 47.2528L23.2887 47.1648L23.7439 43.9271ZM28.3704 44.2828L28.9992 44.2278L30.5372 47.3756L29.8924 47.4318L29.5792 46.7831L28.2512 46.8993L28.0439 47.5936L27.3999 47.6501L28.3704 44.2828ZM28.7649 45.1188L28.4282 46.2746L29.2942 46.1988L28.7649 45.1188ZM30.4094 44.0583L32.0024 43.7486L32.1182 44.3443L31.1292 44.5366L31.2424 45.1188L32.2314 44.9268L32.3457 45.5143L31.3567 45.7066L31.6374 47.1506L31.0334 47.2678L30.4094 44.0583ZM32.2957 43.6736L32.9302 43.4916C33.2782 43.3918 33.5342 43.3523 33.6994 43.3721C33.8644 43.3918 34.0127 43.4606 34.1437 43.5786C34.2747 43.6963 34.3679 43.8543 34.4242 44.0506C34.4837 44.2576 34.4842 44.4438 34.4249 44.6113C34.3654 44.7783 34.2462 44.9263 34.0674 45.0548L35.2119 46.2388L34.5579 46.4263L33.4689 45.2983L33.4134 45.3143L33.7949 46.6451L33.1969 46.8166L32.2957 43.6736ZM33.2462 44.7308L33.4342 44.6768C33.6254 44.6221 33.7494 44.5596 33.8072 44.4886C33.8644 44.4186 33.8767 44.3258 33.8434 44.2106C33.8239 44.1421 33.7892 44.0873 33.7392 44.0473C33.6889 44.0073 33.6309 43.9843 33.5649 43.9796C33.4987 43.9741 33.3862 43.9946 33.2264 44.0403L33.0617 44.0876L33.2462 44.7308ZM34.3814 43.0023L34.9539 42.7711L36.1787 45.8026L35.6062 46.0341L34.3814 43.0023ZM38.2472 41.7831L38.0579 42.3546C37.6492 42.2178 37.2819 42.2363 36.9549 42.4101C36.6784 42.5571 36.4962 42.7751 36.4074 43.0638C36.3184 43.3526 36.3477 43.6351 36.4944 43.9111C36.5967 44.1033 36.7289 44.2521 36.8917 44.3563C37.0549 44.4611 37.2357 44.5153 37.4337 44.5193C37.6324 44.5228 37.8249 44.4746 38.0119 44.3751C38.1712 44.2903 38.3017 44.1833 38.4024 44.0531C38.5027 43.9233 38.5909 43.7381 38.6652 43.4966L39.2449 43.6868C39.1419 44.0088 39.0169 44.2601 38.8702 44.4411C38.7232 44.6223 38.5282 44.7776 38.2844 44.9073C37.8362 45.1456 37.3929 45.1991 36.9557 45.0663C36.5189 44.9333 36.1819 44.6453 35.9454 44.2006C35.7922 43.9126 35.7212 43.6221 35.7329 43.3288C35.7437 43.0361 35.8347 42.7576 36.0054 42.4923C36.1757 42.2273 36.4004 42.0201 36.6804 41.8713C36.9189 41.7443 37.1747 41.6728 37.4489 41.6568C37.7227 41.6401 37.9892 41.6824 38.2472 41.7831ZM38.7212 40.7063L39.2117 40.3091L42.2469 42.0586L41.7439 42.4659L41.1214 42.1031L40.0854 42.9418L40.3019 43.6336L39.7997 44.0403L38.7212 40.7063ZM39.5157 41.1786L39.8827 42.3251L40.5584 41.7781L39.5157 41.1786Z" fill="black"/>
    <path d="M5.77366 51.3408L5.61021 51.4663C5.52028 51.3488 5.41213 51.26 5.28568 51.1993C5.15923 51.1388 5.02078 51.1085 4.86933 51.1085C4.70396 51.1085 4.55106 51.148 4.41021 51.2273C4.26933 51.3065 4.16021 51.4133 4.08281 51.547C4.00541 51.681 3.96646 51.8315 3.96646 51.9985C3.96646 52.2513 4.05301 52.4618 4.22656 52.631C4.39963 52.7998 4.61838 52.8845 4.88231 52.8845C5.17221 52.8845 5.41501 52.771 5.61021 52.5435L5.77366 52.6678C5.67028 52.799 5.54143 52.9008 5.38711 52.9725C5.23278 53.0445 5.06021 53.0803 4.86933 53.0803C4.50683 53.0803 4.22126 52.9595 4.01166 52.718C3.83616 52.5148 3.74818 52.2685 3.74818 51.98C3.74818 51.6768 3.85443 51.422 4.06741 51.2148C4.27991 51.0075 4.54626 50.9043 4.86646 50.9043C5.06021 50.9043 5.23471 50.9425 5.39048 51.019C5.54626 51.0955 5.67413 51.2028 5.77366 51.3408Z" fill="white"/>
    <path d="M6.18904 50.9561H6.39769V52.8283H7.19337V53.0283H6.18904V50.9561Z" fill="white"/>
    <path d="M7.52269 50.9561H8.71019V51.1606H7.72991V51.8085H8.70201V52.0113H7.72991V52.824H8.70201V53.0283H7.52269V50.9561Z" fill="white"/>
    <path d="M9.9145 50.9561L10.8808 53.0283H10.6583L10.3328 52.3465H9.43998L9.11595 53.0283H8.88518L9.864 50.9561H9.9145ZM9.889 51.3955L9.53278 52.1465H10.2414L9.889 51.3955Z" fill="white"/>
    <path d="M11.2131 50.9561H11.6256C11.8558 50.9561 12.0116 50.9658 12.0933 50.9846C12.2164 51.0128 12.3164 51.0731 12.3933 51.1653C12.4703 51.2581 12.5087 51.3721 12.5087 51.5071C12.5087 51.6196 12.4823 51.7186 12.4294 51.8043C12.376 51.8898 12.3006 51.9543 12.2015 51.9981C12.103 52.0418 11.9669 52.0638 11.7933 52.0648L12.5385 53.0283H12.2818L11.5385 52.0648H11.4203V53.0283H11.2131V50.9561ZM11.4203 51.1591V51.8633L11.7765 51.8663C11.9145 51.8663 12.0164 51.8533 12.0828 51.8268C12.1491 51.8003 12.2006 51.7586 12.2376 51.7008C12.2746 51.6431 12.2933 51.5783 12.2933 51.5071C12.2933 51.4373 12.2746 51.3743 12.2371 51.3176C12.1996 51.2611 12.1501 51.22 12.089 51.1955C12.028 51.1715 11.9265 51.1591 11.7847 51.1591H11.4203Z" fill="white"/>
    <path d="M13.1304 50.9561H12.9232V53.0282H13.1304V50.9561Z" fill="white"/>
    <path d="M13.6058 53.0283V50.9561H13.651L15.0284 52.542V50.9561H15.2327V53.0283H15.1861L13.8203 51.4618V53.0283H13.6058Z" fill="white"/>
    <path d="M17.7371 51.3043L17.5765 51.456C17.4606 51.3425 17.3342 51.2565 17.1967 51.198C17.0592 51.1393 16.9251 51.11 16.7948 51.11C16.6323 51.11 16.4775 51.1498 16.3303 51.2298C16.1837 51.3095 16.0698 51.4175 15.989 51.5543C15.9082 51.6908 15.8678 51.8355 15.8678 51.9873C15.8678 52.143 15.9097 52.2913 15.9933 52.4315C16.077 52.572 16.1924 52.6825 16.3395 52.7628C16.4871 52.843 16.6486 52.883 16.8241 52.883C17.0376 52.883 17.2178 52.823 17.365 52.7028C17.5126 52.5825 17.5996 52.4268 17.627 52.2355H16.9664V52.0355H17.8597C17.8577 52.3555 17.7626 52.6095 17.5741 52.798C17.3861 52.9865 17.1342 53.0803 16.8183 53.0803C16.4356 53.0803 16.1323 52.9498 15.9087 52.6888C15.7366 52.4878 15.651 52.2555 15.651 51.9918C15.651 51.7955 15.7001 51.6128 15.7986 51.4435C15.8972 51.2748 16.0327 51.1425 16.2044 51.047C16.3765 50.9518 16.5707 50.9043 16.7876 50.9043C16.963 50.9043 17.1284 50.936 17.2832 50.9993C17.4385 51.0628 17.5895 51.1643 17.7371 51.3043Z" fill="white"/>
    <path d="M20.0395 50.9043C20.3529 50.9043 20.6154 51.009 20.827 51.218C21.038 51.4278 21.1438 51.6855 21.1438 51.9918C21.1438 52.295 21.0385 52.5523 20.8274 52.7633C20.6169 52.9748 20.3597 53.0803 20.0563 53.0803C19.7496 53.0803 19.4904 52.9753 19.2789 52.7648C19.0678 52.5548 18.9621 52.2998 18.9621 52.0013C18.9621 51.8023 19.0101 51.6175 19.1063 51.448C19.2024 51.2778 19.3337 51.145 19.5 51.0485C19.6664 50.9523 19.8462 50.9043 20.0395 50.9043ZM20.0496 51.107C19.8962 51.107 19.7515 51.147 19.614 51.2268C19.477 51.3065 19.3702 51.4143 19.2928 51.5493C19.2159 51.6845 19.1775 51.8355 19.1775 52.0013C19.1775 52.2475 19.2625 52.4553 19.4332 52.6248C19.6034 52.794 19.8092 52.8788 20.0496 52.8788C20.2101 52.8788 20.3587 52.8398 20.4952 52.7618C20.6318 52.684 20.7385 52.5773 20.8149 52.4423C20.8914 52.307 20.9298 52.1565 20.9298 51.9918C20.9298 51.8273 20.8914 51.6788 20.8149 51.5455C20.7385 51.4128 20.6308 51.3065 20.4919 51.2268C20.3529 51.147 20.2053 51.107 20.0496 51.107Z" fill="white"/>
    <path d="M21.5592 50.9561H22.5976V51.1606H21.7649V51.8085H22.5976V52.0128H21.7649V53.0283H21.5592V50.9561Z" fill="white"/>
    <path d="M25.6861 51.3408L25.5226 51.4663C25.4328 51.3488 25.3246 51.26 25.1981 51.1993C25.0716 51.1388 24.9333 51.1085 24.7818 51.1085C24.6163 51.1085 24.4636 51.148 24.3226 51.2273C24.1818 51.3065 24.0726 51.4133 23.9953 51.547C23.9178 51.681 23.8788 51.8315 23.8788 51.9985C23.8788 52.2513 23.9653 52.4618 24.1391 52.631C24.3121 52.7998 24.5308 52.8845 24.7948 52.8845C25.0846 52.8845 25.3273 52.771 25.5226 52.5435L25.6861 52.6678C25.5828 52.799 25.4538 52.9008 25.2996 52.9725C25.1453 53.0445 24.9726 53.0803 24.7818 53.0803C24.4193 53.0803 24.1336 52.9595 23.9241 52.718C23.7486 52.5148 23.6606 52.2685 23.6606 51.98C23.6606 51.6768 23.7668 51.422 23.9798 51.2148C24.1923 51.0075 24.4586 50.9043 24.7788 50.9043C24.9726 50.9043 25.1471 50.9425 25.3028 51.019C25.4586 51.0955 25.5866 51.2028 25.6861 51.3408Z" fill="white"/>
    <path d="M26.1131 50.9561H26.5256C26.7558 50.9561 26.9116 50.9658 26.9933 50.9846C27.1163 51.0128 27.2163 51.0731 27.2933 51.1653C27.3703 51.2581 27.4086 51.3721 27.4086 51.5071C27.4086 51.6196 27.3823 51.7186 27.3293 51.8043C27.2761 51.8898 27.2006 51.9543 27.1016 51.9981C27.0028 52.0418 26.8668 52.0638 26.6933 52.0648L27.4386 53.0283H27.1818L26.4386 52.0648H26.3203V53.0283H26.1131V50.9561ZM26.3203 51.1591V51.8633L26.6766 51.8663C26.8146 51.8663 26.9163 51.8533 26.9828 51.8268C27.0491 51.8003 27.1006 51.7586 27.1376 51.7008C27.1746 51.6431 27.1933 51.5783 27.1933 51.5071C27.1933 51.4373 27.1746 51.3743 27.1371 51.3176C27.0996 51.2611 27.0501 51.22 26.9891 51.1955C26.9278 51.1715 26.8266 51.1591 26.6846 51.1591H26.3203Z" fill="white"/>
    <path d="M28.0303 50.9561H27.8231V53.0282H28.0303V50.9561Z" fill="white"/>
    <path d="M28.4101 53.0283L28.7043 50.9561H28.7386L29.5808 52.6566L30.4143 50.9561H30.4481L30.7456 53.0283H30.5413L30.3383 51.5466L29.6058 53.0283H29.5538L28.8116 51.5356L28.6101 53.0283H28.4101Z" fill="white"/>
    <path d="M31.333 50.9561H31.1258V53.0282H31.333V50.9561Z" fill="white"/>
    <path d="M31.8086 53.0283V50.9561H31.8538L33.2313 52.542V50.9561H33.4356V53.0283H33.3888L32.0231 51.4618V53.0283H31.8086Z" fill="white"/>
    <path d="M34.7876 50.9561L35.7538 53.0283H35.5313L35.2058 52.3465H34.3128L33.9888 53.0283H33.7581L34.7371 50.9561H34.7876ZM34.7621 51.3955L34.4058 52.1465H35.1143L34.7621 51.3955Z" fill="white"/>
    <path d="M36.0746 50.9561H36.2831V52.8283H37.0788V53.0283H36.0746V50.9561Z" fill="white"/>
    <path d="M38.2168 50.9561H38.6293C38.8595 50.9561 39.0153 50.9658 39.097 50.9846C39.22 51.0128 39.32 51.0731 39.397 51.1653C39.474 51.2581 39.5123 51.3721 39.5123 51.5071C39.5123 51.6196 39.486 51.7186 39.433 51.8043C39.3798 51.8898 39.3043 51.9543 39.2053 51.9981C39.1065 52.0418 38.9705 52.0638 38.797 52.0648L39.5423 53.0283H39.2855L38.5423 52.0648H38.424V53.0283H38.2168V50.9561ZM38.424 51.1591V51.8633L38.7803 51.8663C38.9183 51.8663 39.02 51.8533 39.0865 51.8268C39.1528 51.8003 39.2043 51.7586 39.2413 51.7008C39.2783 51.6431 39.297 51.5783 39.297 51.5071C39.297 51.4373 39.2783 51.3743 39.2408 51.3176C39.2033 51.2611 39.1538 51.22 39.0928 51.1955C39.0315 51.1715 38.9303 51.1591 38.7883 51.1591H38.424Z" fill="white"/>
    <path d="M39.9576 50.9561H41.1451V51.1606H40.1648V51.8085H41.1371V52.0113H40.1648V52.824H41.1371V53.0283H39.9576V50.9561Z" fill="white"/>
    <path d="M43.4326 51.3408L43.2691 51.4663C43.1793 51.3488 43.0711 51.26 42.9446 51.1993C42.8181 51.1388 42.6798 51.1085 42.5283 51.1085C42.3628 51.1085 42.2101 51.148 42.0691 51.2273C41.9283 51.3065 41.8191 51.4133 41.7418 51.547C41.6643 51.681 41.6253 51.8315 41.6253 51.9985C41.6253 52.2513 41.7118 52.4618 41.8856 52.631C42.0586 52.7998 42.2773 52.8845 42.5413 52.8845C42.8311 52.8845 43.0741 52.771 43.2691 52.5435L43.4326 52.6678C43.3293 52.799 43.2003 52.9008 43.0461 52.9725C42.8918 53.0445 42.7191 53.0803 42.5283 53.0803C42.1658 53.0803 41.8803 52.9595 41.6706 52.718C41.4951 52.5148 41.4071 52.2685 41.4071 51.98C41.4071 51.6768 41.5133 51.422 41.7263 51.2148C41.9388 51.0075 42.2053 50.9043 42.5253 50.9043C42.7191 50.9043 42.8936 50.9425 43.0493 51.019C43.2053 51.0955 43.3331 51.2028 43.4326 51.3408Z" fill="white"/>
    <path d="M44.8356 50.9043C45.1488 50.9043 45.4116 51.009 45.6231 51.218C45.8341 51.4278 45.9398 51.6855 45.9398 51.9918C45.9398 52.295 45.8346 52.5523 45.6236 52.7633C45.4128 52.9748 45.1556 53.0803 44.8523 53.0803C44.5456 53.0803 44.2866 52.9753 44.0748 52.7648C43.8638 52.5548 43.7581 52.2998 43.7581 52.0013C43.7581 51.8023 43.8061 51.6175 43.9023 51.448C43.9986 51.2778 44.1298 51.145 44.2961 51.0485C44.4623 50.9523 44.6423 50.9043 44.8356 50.9043ZM44.8456 51.107C44.6923 51.107 44.5476 51.147 44.4101 51.2268C44.2731 51.3065 44.1663 51.4143 44.0888 51.5493C44.0118 51.6845 43.9736 51.8355 43.9736 52.0013C43.9736 52.2475 44.0586 52.4553 44.2293 52.6248C44.3993 52.794 44.6053 52.8788 44.8456 52.8788C45.0061 52.8788 45.1548 52.8398 45.2913 52.7618C45.4278 52.684 45.5346 52.5773 45.6111 52.4423C45.6873 52.307 45.7258 52.1565 45.7258 51.9918C45.7258 51.8273 45.6873 51.6788 45.6111 51.5455C45.5346 51.4128 45.4268 51.3065 45.2878 51.2268C45.1488 51.147 45.0013 51.107 44.8456 51.107Z" fill="white"/>
    <path d="M46.3668 50.9561H46.7793C47.0096 50.9561 47.1653 50.9658 47.2471 50.9846C47.3701 51.0128 47.4701 51.0731 47.5471 51.1653C47.6238 51.2581 47.6623 51.3721 47.6623 51.5071C47.6623 51.6196 47.6361 51.7186 47.5831 51.8043C47.5298 51.8898 47.4543 51.9543 47.3551 51.9981C47.2566 52.0418 47.1206 52.0638 46.9471 52.0648L47.6923 53.0283H47.4356L46.6923 52.0648H46.5738V53.0283H46.3668V50.9561ZM46.5738 51.1591V51.8633L46.9301 51.8663C47.0681 51.8663 47.1701 51.8533 47.2363 51.8268C47.3028 51.8003 47.3543 51.7586 47.3913 51.7008C47.4283 51.6431 47.4471 51.5783 47.4471 51.5071C47.4471 51.4373 47.4283 51.3743 47.3908 51.3176C47.3533 51.2611 47.3038 51.22 47.2426 51.1955C47.1816 51.1715 47.0801 51.1591 46.9383 51.1591H46.5738Z" fill="white"/>
    <path d="M48.106 53.0283V50.9561H48.5361C48.8461 50.9561 49.0705 50.9811 49.2105 51.0311C49.4115 51.1013 49.5685 51.2236 49.6815 51.3971C49.795 51.5711 49.8513 51.7778 49.8513 52.0181C49.8513 52.2258 49.8066 52.4085 49.7173 52.5663C49.6273 52.724 49.511 52.8403 49.3678 52.9158C49.2243 52.9908 49.0238 53.0283 48.7658 53.0283H48.106ZM48.305 52.8325H48.5445C48.8305 52.8325 49.0293 52.8148 49.1403 52.7788C49.296 52.7283 49.4185 52.6368 49.5075 52.5053C49.597 52.3731 49.6418 52.2118 49.6418 52.021C49.6418 51.821 49.593 51.6503 49.4965 51.5085C49.3998 51.3668 49.2653 51.2696 49.0923 51.2168C48.9628 51.1773 48.749 51.1575 48.4513 51.1575H48.305V52.8325Z" fill="white"/>
    <path d="M50.0388 52.6423L50.2148 52.5368C50.3388 52.7648 50.4821 52.8788 50.6446 52.8788C50.7138 52.8788 50.7793 52.8628 50.8403 52.8303C50.9013 52.798 50.9481 52.7548 50.9798 52.6998C51.0118 52.6455 51.0278 52.5878 51.0278 52.5268C51.0278 52.457 51.0043 52.3893 50.9571 52.3225C50.8923 52.2305 50.7738 52.1195 50.6023 51.9903C50.4298 51.8595 50.3221 51.7653 50.2798 51.707C50.2066 51.6095 50.1701 51.5038 50.1701 51.3903C50.1701 51.2998 50.1913 51.2175 50.2346 51.1435C50.2778 51.0695 50.3388 51.011 50.4173 50.968C50.4956 50.9253 50.5806 50.9043 50.6726 50.9043C50.7706 50.9043 50.8618 50.9283 50.9466 50.9768C51.0316 51.0248 51.1216 51.1143 51.2163 51.2435L51.0476 51.372C50.9696 51.2685 50.9028 51.2003 50.8481 51.1675C50.7931 51.135 50.7331 51.118 50.6686 51.118C50.5851 51.118 50.5168 51.1435 50.4633 51.1945C50.4106 51.245 50.3841 51.3075 50.3841 51.3815C50.3841 51.4268 50.3931 51.4705 50.4118 51.5128C50.4311 51.555 50.4653 51.6008 50.5148 51.6508C50.5423 51.6768 50.6316 51.746 50.7826 51.8575C50.9618 51.9903 51.0851 52.108 51.1518 52.2115C51.2181 52.3148 51.2518 52.418 51.2518 52.5225C51.2518 52.673 51.1946 52.8033 51.0806 52.9143C50.9663 53.0248 50.8278 53.0803 50.6643 53.0803C50.5383 53.0803 50.4243 53.047 50.3221 52.9798C50.2196 52.9123 50.1253 52.7998 50.0388 52.6423Z" fill="white"/>
    </g>
    </g>
    <defs>
    <radialGradient id="paint0_radial_118_15427" cx="0" cy="0" r="1" gradientUnits="userSpaceOnUse" gradientTransform="translate(29.6953 25.4261) scale(12.2002 12.2002)">
    <stop stop-color="#0B9DC6"/>
    <stop offset="1" stop-color="#1B5C96"/>
    </radialGradient>
    <clipPath id="clip0_118_15427">
    <rect width="55" height="55" fill="white"/>
    </clipPath>
    </defs>
    </svg>
    