<svg width="113" height="37" viewBox="0 0 113 37" fill="none" xmlns="http://www.w3.org/2000/svg">
<g clip-path="url(#clip0_1127:4868)">
<path d="M59.9531 29.3136H64.9775V25.1062C63.2824 24.8955 61.6037 24.569 59.9531 24.1289V29.3136Z" fill="#EF882E"/>
<path d="M73.8359 29.3124H78.8534V24.2178C77.2045 24.6421 75.5279 24.9502 73.8359 25.1397V29.3124Z" fill="#EF882E"/>
<path d="M46.0361 29.3133H51.0605V20.455C49.2932 19.4403 47.6127 18.2812 46.0361 16.9893V29.3133Z" fill="#EF882E"/>
<path d="M88.6464 20.1006C87.0399 21.0633 85.3626 21.9022 83.6289 22.6098V29.2847H88.6464V20.1006Z" fill="#EF882E"/>
<path d="M98.1688 22.4372C97.6618 21.4675 97.4093 20.3846 97.4352 19.2903C97.4068 18.2091 97.6596 17.139 98.1688 16.1851C98.5015 15.5816 98.9511 15.0507 99.4913 14.6235C100.032 14.1964 100.651 13.8816 101.315 13.6976C101.978 13.5136 102.671 13.4641 103.354 13.552C104.037 13.6399 104.695 13.8635 105.29 14.2096C106.11 14.6865 106.781 15.3826 107.228 16.2197C107.72 17.191 107.958 18.2713 107.92 19.3597C107.92 19.7987 107.883 20.2369 107.809 20.6697C109.509 20.3097 111.242 20.1285 112.979 20.129V9.41305H107.962V12.248C107.253 11.3022 106.34 10.5296 105.29 9.98836C104.09 9.36478 102.752 9.05484 101.401 9.08727C101.041 9.08727 100.709 9.08727 100.342 9.14965C98.1561 12.3416 95.49 15.1755 92.4386 17.5506C92.3625 18.1273 92.3255 18.7086 92.3278 19.2903C92.2881 21.1626 92.6988 23.017 93.5251 24.6969C94.0169 25.6746 94.6723 26.5608 95.4629 27.3169C96.7023 26.0981 98.0662 25.0131 99.5322 24.08C98.9757 23.6261 98.5127 23.0681 98.1688 22.4372Z" fill="#EF882E"/>
<path d="M70.7151 9.12187C69.313 9.11239 67.9333 9.47341 66.715 10.1685C65.5352 10.8101 64.5592 11.7708 63.8983 12.9411C63.252 11.7426 62.2675 10.7614 61.0677 10.12C59.7883 9.44655 58.3605 9.10572 56.9154 9.1288C55.759 9.10729 54.6124 9.34407 53.5589 9.82194C52.5811 10.2689 51.7261 10.9468 51.0674 11.7974V9.41299H46.0361V16.989C47.6127 18.2809 49.2932 19.4401 51.0605 20.4548V18.3199C50.9748 17.0164 51.4049 15.7315 52.2578 14.7433C52.6909 14.3214 53.2066 13.9939 53.7724 13.7815C54.3382 13.5692 54.9418 13.4766 55.5451 13.5095C56.1389 13.4776 56.7328 13.571 57.2883 13.7836C57.8439 13.9961 58.3487 14.323 58.7701 14.7433C59.616 15.7348 60.0408 17.0186 59.9535 18.3199V24.1284C61.6041 24.5685 63.2828 24.895 64.9779 25.1058V18.3199C64.8884 17.0159 65.3189 15.7296 66.1752 14.7433C66.6015 14.3239 67.1101 13.9977 67.6688 13.7853C68.2275 13.5729 68.8241 13.479 69.4209 13.5095C70.0181 13.4756 70.6157 13.5679 71.1749 13.7805C71.7341 13.993 72.2424 14.3211 72.6667 14.7433C73.5126 15.7348 73.9374 17.0186 73.8501 18.3199V25.1404C75.5421 24.9509 77.2187 24.6429 78.8676 24.2185V17.6406C78.8676 14.9558 78.1202 12.8764 76.6253 11.4023C75.848 10.638 74.9225 10.0413 73.906 9.64905C72.8895 9.25683 71.8035 9.07741 70.7151 9.12187V9.12187Z" fill="#F6B02F"/>
<path d="M86.1681 7.04289C86.5737 7.05564 86.9777 6.98744 87.3568 6.84226C87.7358 6.69708 88.0822 6.47782 88.3757 6.19725C88.6597 5.9318 88.8847 5.60947 89.0361 5.25121C89.1876 4.89296 89.262 4.50679 89.2547 4.11782C89.262 3.72885 89.1876 3.34269 89.0361 2.98443C88.8847 2.62617 88.6597 2.30384 88.3757 2.03839C87.7701 1.49429 86.9851 1.19336 86.1715 1.19336C85.3579 1.19336 84.573 1.49429 83.9673 2.03839C83.6833 2.30384 83.4583 2.62617 83.3069 2.98443C83.1555 3.34269 83.081 3.72885 83.0884 4.11782C83.081 4.50679 83.1555 4.89296 83.3069 5.25121C83.4583 5.60947 83.6833 5.9318 83.9673 6.19725C84.2601 6.47698 84.6053 6.69576 84.9831 6.84091C85.3609 6.98607 85.7636 7.05472 86.1681 7.04289Z" fill="#F6B02F"/>
<path d="M88.6464 9.41309H83.6289V22.6383C85.3634 21.9217 87.0408 21.0736 88.6464 20.1014V9.41309Z" fill="#F6B02F"/>
<path d="M100.349 9.14941C99.0902 9.27614 97.8765 9.68606 96.7984 10.3486C95.3949 11.2149 94.2629 12.4591 93.5318 13.939C92.96 15.0693 92.5922 16.2918 92.4453 17.5503C95.4968 15.1752 98.1628 12.3414 100.349 9.14941Z" fill="#F6B02F"/>
<path d="M101.345 29.6382C102.71 29.6671 104.06 29.35 105.269 28.7164C106.34 28.1739 107.264 27.3795 107.962 26.4013V29.3125H113.021V20.1006C111.283 20.1001 109.551 20.2813 107.851 20.6412C107.752 21.2825 107.549 21.9031 107.249 22.4781C106.802 23.3152 106.131 24.0112 105.311 24.4882C104.513 24.9465 103.608 25.1856 102.688 25.1813C101.787 25.1894 100.901 24.9496 100.127 24.4882C99.9208 24.3592 99.7221 24.218 99.5322 24.0654C98.0663 24.9985 96.7023 26.0835 95.4629 27.3023C95.8718 27.6863 96.3168 28.0299 96.7916 28.3282C98.1544 29.1895 99.734 29.6439 101.345 29.6382Z" fill="#E94740"/>
<path d="M5.7373 4.69922L10.7894 17.3907L28.5062 15.2003" stroke="#E94740" stroke-miterlimit="10"/>
<path d="M27.4127 23.6636L5.7373 4.69922" stroke="#E94740" stroke-miterlimit="10"/>
<path d="M0.691406 13.0023L24.6575 6.66699" stroke="#F6B02F" stroke-miterlimit="10"/>
<path d="M14.2559 29.549L32.5886 16.5664" stroke="#F6B02F" stroke-miterlimit="10"/>
<path d="M32.3053 14.6383L33.4887 10.5349L33.1773 6.31369L29.2672 3.25L25.0456 3.61043L21.7998 6.34142" stroke="#EF882E" stroke-miterlimit="10"/>
<path d="M11.6406 3.38246L14.1321 1.1436L19.7032 0.360352L25.0459 3.61119" stroke="#EF882E" stroke-miterlimit="10"/>
<path d="M4.60156 18.3965L6.98918 26.5132L9.8474 33.0149L11.4045 34.4497L13.0932 32.495L12.6364 27.0331L13.2939 22.4167" stroke="#EF882E" stroke-miterlimit="10"/>
<path d="M24.8105 31.2682L25.5649 33.9853L27.9456 33.2783L29.9803 27.0331L31.1844 18.3965" stroke="#EF882E" stroke-miterlimit="10"/>
<path d="M5.73692 4.66454L13.3911 3.07031L16.0971 5.52404L24.6164 6.62614L25.8413 12.0257L28.5335 15.0894L32.409 14.5488L32.5889 16.5658L27.4192 23.4903L25.5161 30.0336L21.8135 35.1906L17.3359 36.5838L14.014 29.4929L14.2493 24.2597L10.7059 17.3283L4.44968 18.3056L0.421875 12.8575L5.73692 4.66454Z" stroke="#EF882E" stroke-miterlimit="10"/>
</g>
<defs>
<clipPath id="clip0_1127:4868">
<rect width="113" height="37" fill="white"/>
</clipPath>
</defs>
</svg>
