<svg width="80" height="35" viewBox="0 0 80 35" fill="none" xmlns="http://www.w3.org/2000/svg">
<g filter="url(#filter0_d_700_5573)">
<mask id="mask0_700_5573" style="mask-type:alpha" maskUnits="userSpaceOnUse" x="3" y="1" width="31" height="33">
<path d="M20.004 1.65877C19.0424 4.08698 20.8319 7.80013 24.3577 10.3858C27.4339 12.6417 30.9103 13.3636 33.0691 12.3997C33.5796 13.9763 33.8562 15.6633 33.8562 17.4168C33.8562 23.0568 30.9955 28.008 26.6884 30.8128V16.3773C26.6884 14.9592 26.0089 14.2502 24.65 14.2502C23.2784 14.6435 22.2512 16.0509 21.5686 18.4724C20.5446 22.1047 20.5446 26.3036 22.5925 30.0835C22.7991 30.4647 23.3346 31.0599 23.6165 31.139C23.6499 31.3668 23.616 31.7824 23.5147 32.3859C21.9422 32.946 20.2539 33.2502 18.4967 33.2502C17.8464 33.2502 17.2056 33.2085 16.5766 33.1276C16.4914 32.561 16.4488 31.9096 16.4488 31.1736C16.4488 30.4575 16.7901 29.7423 17.4727 29.0279C18.1554 28.3136 18.4967 27.2581 18.4967 25.8613V15.2837C18.4967 14.7129 18.0382 14.2502 17.4727 14.2502C16.9072 14.2502 16.4488 14.7129 16.4488 15.2837V24.2889C16.4488 24.5743 16.2195 24.8057 15.9368 24.8057C15.654 24.8057 15.4248 24.5743 15.4248 24.2889V15.2837C15.4248 14.7129 14.9663 14.2502 14.4008 14.2502C13.8353 14.2502 13.3769 14.7129 13.3769 15.2837V24.2889C13.3769 24.5743 13.1476 24.8057 12.8649 24.8057C12.5821 24.8057 12.3529 24.5743 12.3529 24.2889V15.2837C12.3529 14.7129 11.8944 14.2502 11.3289 14.2502C10.7634 14.2502 10.305 14.7129 10.305 15.2837V25.8613C10.305 27.2544 10.6463 28.31 11.3289 29.0279C12.0116 29.7459 12.3529 30.4496 12.3529 31.139C12.3529 31.4126 12.3471 31.6746 12.3356 31.9249C6.92017 29.4776 3.13721 23.9026 3.13721 17.4168C3.13721 8.67232 10.0139 1.5835 18.4967 1.5835C19.0053 1.5835 19.5081 1.60898 20.004 1.65877Z" fill="white"/>
</mask>
<g mask="url(#mask0_700_5573)">
<path d="M20.004 1.65877C19.0424 4.08698 20.8319 7.80013 24.3577 10.3858C27.4339 12.6417 30.9103 13.3636 33.0691 12.3997C33.5796 13.9763 33.8562 15.6633 33.8562 17.4168C33.8562 23.0568 30.9955 28.008 26.6884 30.8128V16.3773C26.6884 14.9592 26.0089 14.2502 24.65 14.2502C23.2784 14.6435 22.2512 16.0509 21.5686 18.4724C20.5446 22.1047 20.5446 26.3036 22.5925 30.0835C22.7991 30.4647 23.3346 31.0599 23.6165 31.139C23.6499 31.3668 23.616 31.7824 23.5147 32.3859C21.9422 32.946 20.2539 33.2502 18.4967 33.2502C17.8464 33.2502 17.2056 33.2085 16.5766 33.1276C16.4914 32.561 16.4488 31.9096 16.4488 31.1736C16.4488 30.4575 16.7901 29.7423 17.4727 29.0279C18.1554 28.3136 18.4967 27.2581 18.4967 25.8613V15.2837C18.4967 14.7129 18.0382 14.2502 17.4727 14.2502C16.9072 14.2502 16.4488 14.7129 16.4488 15.2837V24.2889C16.4488 24.5743 16.2195 24.8057 15.9368 24.8057C15.654 24.8057 15.4248 24.5743 15.4248 24.2889V15.2837C15.4248 14.7129 14.9663 14.2502 14.4008 14.2502C13.8353 14.2502 13.3769 14.7129 13.3769 15.2837V24.2889C13.3769 24.5743 13.1476 24.8057 12.8649 24.8057C12.5821 24.8057 12.3529 24.5743 12.3529 24.2889V15.2837C12.3529 14.7129 11.8944 14.2502 11.3289 14.2502C10.7634 14.2502 10.305 14.7129 10.305 15.2837V25.8613C10.305 27.2544 10.6463 28.31 11.3289 29.0279C12.0116 29.7459 12.3529 30.4496 12.3529 31.139C12.3529 31.4126 12.3471 31.6746 12.3356 31.9249C6.92017 29.4776 3.13721 23.9026 3.13721 17.4168C3.13721 8.67232 10.0139 1.5835 18.4967 1.5835C19.0053 1.5835 19.5081 1.60898 20.004 1.65877Z" fill="white"/>
</g>
<path d="M23.1109 4.19925C23.6764 4.19925 24.1348 3.72666 24.1348 3.14369C24.1348 2.56072 23.6764 2.08813 23.1109 2.08813C22.5454 2.08813 22.0869 2.56072 22.0869 3.14369C22.0869 3.72666 22.5454 4.19925 23.1109 4.19925Z" fill="white"/>
<path d="M31.6358 9.85128C32.2013 9.85128 32.6597 9.3787 32.6597 8.79573C32.6597 8.21276 32.2013 7.74017 31.6358 7.74017C31.0703 7.74017 30.6118 8.21276 30.6118 8.79573C30.6118 9.3787 31.0703 9.85128 31.6358 9.85128Z" fill="white"/>
<path d="M27.6878 7.52154C28.8189 7.52154 29.7358 6.57636 29.7358 5.41043C29.7358 4.24449 28.8189 3.29932 27.6878 3.29932C26.5568 3.29932 25.6399 4.24449 25.6399 5.41043C25.6399 6.57636 26.5568 7.52154 27.6878 7.52154Z" fill="white"/>
<path fill-rule="evenodd" clip-rule="evenodd" d="M38.9761 10.7898C38.9761 9.28097 39.5219 7.9851 40.6135 6.9021C41.7005 5.8191 43.0068 5.27761 44.5323 5.27761C46.0396 5.27761 47.3322 5.82373 48.4101 6.91599C49.4926 8.00824 50.0338 9.32031 50.0338 10.8522C50.0338 12.3934 49.4903 13.7009 48.4032 14.7746C47.3116 15.853 45.9939 16.3922 44.4501 16.3922C43.0845 16.3922 41.8581 15.9132 40.7711 14.9551C39.5744 13.8953 38.9761 12.5068 38.9761 10.7898ZM40.5861 10.8106C40.5861 11.9954 40.9789 12.9696 41.7645 13.7333C42.5455 14.4969 43.4476 14.8788 44.4707 14.8788C45.5806 14.8788 46.5169 14.49 47.2796 13.7125C48.0424 12.9257 48.4238 11.9676 48.4238 10.8384C48.4238 9.6952 48.047 8.73717 47.2933 7.96427C46.5443 7.18673 45.6171 6.79797 44.5118 6.79797C43.411 6.79797 42.4816 7.18673 41.7234 7.96427C40.9652 8.73255 40.5861 9.68131 40.5861 10.8106ZM53.6375 11.845V16.1978H52.0412V5.47894H53.8499C54.7359 5.47894 55.4051 5.54142 55.8572 5.66638C56.314 5.79134 56.7159 6.02737 57.063 6.37449C57.6705 6.97615 57.9742 7.73517 57.9742 8.65155C57.9742 9.63273 57.65 10.4103 57.0014 10.9841C56.3528 11.558 55.4782 11.845 54.3774 11.845H53.6375ZM53.6375 10.3455H54.2335C55.6997 10.3455 56.4327 9.77389 56.4327 8.63072C56.4327 7.52458 55.6768 6.97152 54.165 6.97152H53.6375V10.3455ZM65.4557 6.99929H61.2148V9.57487H65.3323V11.0952H61.2148V14.6774H65.4557V16.1978H59.6185V5.47894H65.4557V6.99929ZM67.5521 16.1978V4.75L75.2665 12.928V5.47894H76.8628V16.8504L69.1484 8.6932V16.1978H67.5521ZM45.4846 20.7668L44.1898 21.5444C43.9477 21.1186 43.7171 20.8409 43.4978 20.7113C43.2694 20.5632 42.9748 20.4891 42.614 20.4891C42.171 20.4891 41.8033 20.6164 41.511 20.871C41.2187 21.1209 41.0725 21.4356 41.0725 21.8151C41.0725 22.3381 41.4562 22.7592 42.2235 23.0786L43.2786 23.516C44.1373 23.8677 44.7653 24.297 45.1626 24.8037C45.56 25.3105 45.7587 25.9319 45.7587 26.6677C45.7587 27.6535 45.4344 28.4681 44.7858 29.1114C44.1327 29.7594 43.322 30.0833 42.3537 30.0833C41.4356 30.0833 40.6774 29.808 40.0791 29.2572C39.4899 28.7065 39.1222 27.9312 38.9761 26.9315L40.5929 26.5706C40.666 27.2 40.7939 27.635 40.9766 27.8757C41.3055 28.3385 41.785 28.5699 42.4153 28.5699C42.9132 28.5699 43.3265 28.401 43.6554 28.0631C43.9842 27.7253 44.1487 27.2972 44.1487 26.7788C44.1487 26.5705 44.1201 26.3796 44.063 26.2061C44.0059 26.0325 43.9169 25.8729 43.7958 25.7271C43.6748 25.5813 43.5184 25.4447 43.3265 25.3175C43.1347 25.1902 42.9063 25.0687 42.6414 24.953L41.6206 24.5226C40.1727 23.9024 39.4488 22.9953 39.4488 21.8012C39.4488 20.9959 39.7525 20.3225 40.36 19.781C40.9675 19.2349 41.7234 18.9618 42.6277 18.9618C43.8472 18.9618 44.7995 19.5635 45.4846 20.7668ZM53.521 20.6905H49.2802V23.266H53.3977V24.7864H49.2802V28.3686H53.521V29.889H47.6839V19.1701H53.521V20.6905ZM61.8314 27.2856H57.3028L56.1244 29.889H54.4048L59.6391 18.4967L64.6883 29.889H62.9413L61.8314 27.2856ZM61.1806 25.7652L59.6117 22.1206L57.9674 25.7652H61.1806ZM68.9292 20.6905V29.889H67.3329V20.6905H64.9007V19.1701H71.3545V20.6905H68.9292Z" fill="white"/>
</g>
<defs>
<filter id="filter0_d_700_5573" x="-2.86279" y="-2.4165" width="85.7256" height="43.6667" filterUnits="userSpaceOnUse" color-interpolation-filters="sRGB">
<feFlood flood-opacity="0" result="BackgroundImageFix"/>
<feColorMatrix in="SourceAlpha" type="matrix" values="0 0 0 0 0 0 0 0 0 0 0 0 0 0 0 0 0 0 127 0" result="hardAlpha"/>
<feOffset dy="2"/>
<feGaussianBlur stdDeviation="3"/>
<feComposite in2="hardAlpha" operator="out"/>
<feColorMatrix type="matrix" values="0 0 0 0 0 0 0 0 0 0 0 0 0 0 0 0 0 0 0.12 0"/>
<feBlend mode="normal" in2="BackgroundImageFix" result="effect1_dropShadow_700_5573"/>
<feBlend mode="normal" in="SourceGraphic" in2="effect1_dropShadow_700_5573" result="shape"/>
</filter>
</defs>
</svg>
