<?xml version="1.0" encoding="utf-8"?>
<!-- Generator: Adobe Illustrator 22.0.1, SVG Export Plug-In . SVG Version: 6.00 Build 0)  -->
<svg version="1.1" id="Layer_1" xmlns="http://www.w3.org/2000/svg" xmlns:xlink="http://www.w3.org/1999/xlink" x="0px" y="0px"
	 viewBox="0 0 354 71.8" style="enable-background:new 0 0 354 71.8;" xml:space="preserve" width="300.017" height="60.85">
<style type="text/css">
	.st0{fill:#009558;}
</style>
<g>
	<g>
		<g>
			<g>
				<g>
					<path class="st0" d="M17,58.4V20.9h12.8c2.4,0,4.2,0.3,5.4,0.9c1.3,0.6,2.3,1.7,3,3.4c0.8,1.7,1.2,3.7,1.2,6.1
						c0,2.1-0.3,3.9-0.9,5.4c-0.6,1.5-1.4,2.7-2.4,3.7c-0.7,0.6-1.6,1.1-2.7,1.5c0.9,0.5,1.6,0.9,2,1.4c0.3,0.3,0.7,1,1.2,2
						s0.9,1.8,1.1,2.3l3.7,10.9h-8.7L28.6,47c-0.5-1.5-1-2.4-1.4-2.9c-0.6-0.6-1.2-0.9-1.9-0.9h-0.7v15.2C24.6,58.4,17,58.4,17,58.4
						z M24.7,36H28c0.3,0,1-0.2,2-0.5c0.5-0.2,0.9-0.5,1.2-1.2c0.3-0.6,0.5-1.4,0.5-2.2c0-1.2-0.3-2.1-0.8-2.8c-0.5-0.6-1.5-1-2.9-1
						h-3.4L24.7,36L24.7,36z"/>
				</g>
				<g>
					<path class="st0" d="M46.9,20.9h20.6v8H54.6v6h12v7.7h-12V50h13.3v8.5h-21V20.9z"/>
				</g>
				<g>
					<path class="st0" d="M75,20.9h7.2l9.4,20.7V20.9h7.2v37.5h-7.2l-9.3-20.6v20.6H75V20.9z"/>
				</g>
				<g>
					<path class="st0" d="M105.1,20.9h23.4v9.3h-7.8v28.2H113V30.1h-7.8L105.1,20.9L105.1,20.9z"/>
				</g>
				<g>
					<path class="st0" d="M162.6,52.2h-8.7l-1.2,6.2h-7.8l9.3-37.5h8.4l9.3,37.5h-8L162.6,52.2z M161,44l-2.7-13.5L155.5,44H161z"/>
				</g>
				<g>
					<path class="st0" d="M190.3,45.9l7.3-0.7c0.2,1.8,0.5,3.2,1,4.1c0.8,1.5,1.9,2.3,3.4,2.3c1.1,0,1.9-0.4,2.5-1.2
						s0.9-1.7,0.9-2.7s-0.3-1.8-0.8-2.6c-0.6-0.8-1.9-1.5-3.9-2.2c-3.4-1.1-5.8-2.7-7.2-4.6c-1.5-1.9-2.2-4.3-2.2-7.2
						c0-1.9,0.4-3.8,1.1-5.5c0.7-1.7,1.9-3.1,3.3-4c1.5-1,3.5-1.5,6.1-1.5c3.2,0,5.6,0.9,7.3,2.7c1.7,1.8,2.7,4.6,3,8.5l-7.2,0.6
						c-0.2-1.7-0.6-2.9-1.2-3.7c-0.6-0.8-1.5-1.2-2.6-1.2c-0.9,0-1.6,0.3-2,0.9c-0.5,0.6-0.7,1.3-0.7,2.1c0,0.6,0.2,1.1,0.6,1.6
						c0.4,0.5,1.2,1,2.6,1.4c3.4,1.1,5.8,2.2,7.2,3.3c1.5,1.1,2.5,2.5,3.2,4.2s1,3.5,1,5.5c0,2.4-0.4,4.6-1.3,6.7
						c-0.9,2-2.1,3.6-3.7,4.6c-1.6,1.1-3.6,1.6-6,1.6c-4.2,0-7.2-1.2-8.8-3.7C191.5,52.9,190.6,49.7,190.3,45.9z"/>
				</g>
				<g>
					<path class="st0" d="M216.8,20.9h23.4v9.3h-7.8v28.2h-7.7V30.1h-7.8L216.8,20.9L216.8,20.9z"/>
				</g>
				<g>
					<path class="st0" d="M243.2,39.6c0-6.1,1.1-10.9,3.4-14.3c2.3-3.4,5.4-5.1,9.5-5.1c4.1,0,7.3,1.7,9.6,5c2.2,3.4,3.4,8,3.4,14.1
						c0,4.4-0.5,8-1.5,10.8s-2.4,5-4.2,6.5c-1.8,1.6-4.2,2.3-6.9,2.3c-2.8,0-5.1-0.7-7-2c-1.8-1.3-3.3-3.5-4.5-6.4
						C243.8,47.7,243.2,44,243.2,39.6z M250.9,39.7c0,3.8,0.5,6.5,1.4,8.2s2.2,2.5,3.8,2.5c1.7,0,2.9-0.8,3.8-2.4
						c0.9-1.6,1.3-4.5,1.3-8.7c0-3.5-0.5-6.1-1.4-7.7c-0.9-1.6-2.2-2.4-3.8-2.4c-1.5,0-2.8,0.8-3.7,2.5
						C251.4,33.1,250.9,35.9,250.9,39.7z"/>
				</g>
				<g>
					<path class="st0" d="M274.9,58.4V20.9h12.8c2.4,0,4.2,0.3,5.4,0.9c1.2,0.6,2.3,1.7,3,3.4c0.8,1.7,1.1,3.7,1.1,6.1
						c0,2.1-0.3,3.9-0.9,5.4s-1.4,2.7-2.4,3.7c-0.7,0.6-1.6,1.1-2.7,1.5c0.9,0.5,1.6,0.9,2,1.4c0.3,0.3,0.7,1,1.2,2s0.9,1.8,1.1,2.3
						l3.7,10.9h-8.7L286.4,47c-0.5-1.5-1-2.4-1.4-2.9c-0.6-0.6-1.2-0.9-1.9-0.9h-0.7v15.2C282.4,58.4,274.9,58.4,274.9,58.4z
						 M282.7,36h3.2c0.4,0,1-0.2,2-0.5c0.5-0.2,0.9-0.5,1.2-1.2c0.3-0.6,0.5-1.4,0.5-2.2c0-1.2-0.3-2.1-0.8-2.8
						c-0.5-0.6-1.5-1-2.9-1h-3.4V36H282.7z"/>
				</g>
				<g>
					<path class="st0" d="M303.6,20.9h20.6v8h-12.9v6h12v7.7h-12V50h13.3v8.5h-21V20.9z"/>
				</g>
			</g>
			<g>
				<rect x="131.5" y="36" class="st0" width="10.7" height="7.3"/>
			</g>
			<g>
				<rect x="174.4" y="36" class="st0" width="10.7" height="7.3"/>
			</g>
			<g>
				<g>
					<path class="st0" d="M322.1,6.6H18.5C8.3,6.6,0,14.9,0,25v28.4c0,10.1,8.3,18.4,18.5,18.4h303.6c10.2,0,18.5-8.2,18.5-18.4V25
						C340.6,14.9,332.3,6.6,322.1,6.6z M334.4,53.4c0,6.8-5.5,12.3-12.3,12.3H18.5c-6.8,0-12.3-5.5-12.3-12.3V25
						c0-6.8,5.5-12.3,12.3-12.3h303.6c6.8,0,12.3,5.5,12.3,12.3V53.4z"/>
				</g>
			</g>
		</g>
	</g>
	<g>
		<g>
			<path class="st0" d="M354,7.6c0,4.3-3.4,7.7-7.8,7.7s-7.8-3.4-7.8-7.7c0-4.2,3.5-7.6,7.8-7.6C350.6,0,354,3.4,354,7.6z
				 M340.3,7.6c0,3.4,2.5,6.1,5.9,6.1c3.3,0,5.8-2.7,5.8-6c0-3.4-2.5-6.1-5.8-6.1C342.8,1.5,340.3,4.3,340.3,7.6z M345,11.6h-1.8V4
				c0.7-0.1,1.7-0.2,2.9-0.2c1.4,0,2.1,0.2,2.6,0.6c0.4,0.3,0.7,0.9,0.7,1.7s-0.6,1.5-1.6,1.8V8c0.7,0.3,1.2,0.8,1.4,1.9
				c0.2,1.2,0.4,1.6,0.6,1.9H348c-0.2-0.3-0.4-1-0.6-1.9c-0.1-0.8-0.6-1.2-1.6-1.2H345V11.6z M345.1,7.3h0.8c1,0,1.8-0.3,1.8-1.1
				c0-0.7-0.5-1.2-1.6-1.2c-0.5,0-0.8,0-1,0.1L345.1,7.3L345.1,7.3z"/>
		</g>
	</g>
</g>
</svg>
