<svg xmlns="http://www.w3.org/2000/svg" width="141" height="43" viewBox="0 0 141 43" fill="none">
<path d="M75.376 29.3792C78.0841 28.509 80.4379 26.7302 82.0668 24.3221C82.399 22.1111 82.1342 19.8473 81.3032 17.7825C80.4714 15.7177 79.1055 13.9323 77.3564 12.6235C78.8127 15.2645 79.4068 18.3233 79.0498 21.3432C78.6928 24.3631 77.4042 27.1819 75.376 29.3792Z" fill="white"/>
<path d="M78.2323 19.682C78.2732 16.7004 77.3372 13.789 75.5706 11.4052C73.5756 10.3809 71.34 9.93637 69.1113 10.122C66.8824 10.3067 64.748 11.1139 62.9443 12.4538C65.9202 11.8242 69.0174 12.1877 71.7728 13.4905C74.5285 14.793 76.7941 16.965 78.2323 19.682Z" fill="white"/>
<path d="M70.0386 13.7152C67.2596 12.7518 64.2455 12.7551 61.4689 13.725C59.8945 15.3373 58.7885 17.362 58.2743 19.5747C57.76 21.7883 57.8575 24.1026 58.5557 26.2631C58.8838 23.1888 60.18 20.3059 62.2494 18.0444C64.319 15.783 67.052 14.264 70.0386 13.7152Z" fill="white"/>
<path d="M65.0781 29.5526C66.7739 31.9857 69.2195 33.7803 72.0318 34.6546C74.2408 34.2943 76.3079 33.3229 78.0042 31.8473C79.7005 30.3711 80.9603 28.4485 81.6439 26.2925C79.5999 28.572 76.8822 30.1219 73.8964 30.7099C70.9109 31.2973 67.8172 30.8914 65.0781 29.5526Z" fill="white"/>
<path d="M61.9548 19.7817C60.1981 22.1789 59.2709 25.1022 59.3181 28.0951C60.3358 30.1204 61.8828 31.8188 63.7879 33.0019C65.6931 34.1851 67.8821 34.8069 70.1124 34.7977C67.3468 33.5288 65.0578 31.3802 63.5878 28.6745C62.1175 25.9667 61.5447 22.8482 61.9548 19.7817Z" fill="white"/>
<path d="M6.88574 10.647H12.6654L17.3977 24.2791L22.489 10.647H26.0243L31.0244 24.1246L35.7619 10.647H41.5798L32.9925 34.6074H29.2507L24.2326 20.9539L19.0631 34.6074H15.3648L6.88574 10.647Z" fill="white"/>
<path d="M43.5361 10.6469H48.5974V13.6644C49.1452 12.4748 49.8735 11.5717 50.782 10.9552C51.6903 10.3387 52.6854 10.0304 53.7669 10.0304C54.5311 10.0304 55.3311 10.2365 56.1676 10.6469L54.3293 15.8225C53.6371 15.47 53.0672 15.2939 52.6204 15.2939C51.7121 15.2939 50.9442 15.8664 50.3171 17.0119C49.6894 18.157 49.3762 20.4033 49.3762 23.7507L49.3978 24.9178V34.6076H43.5361V10.6469Z" fill="white"/>
<path d="M101.849 13.9943L98.1936 17.7166C96.7084 16.219 95.3604 15.4703 94.1491 15.4703C93.4861 15.4703 92.9666 15.6128 92.5916 15.8994C92.2165 16.1854 92.0292 16.5421 92.0292 16.9676C92.0292 17.291 92.1479 17.588 92.3862 17.8594C92.6239 18.1314 93.2114 18.5018 94.1491 18.9716L96.3121 20.0724C98.5906 21.2178 100.154 22.3855 101.006 23.5743C101.856 24.764 102.282 26.1582 102.282 27.7592C102.282 29.8879 101.514 31.6638 99.9783 33.0883C98.4427 34.5123 96.3844 35.2238 93.8031 35.2238C90.3711 35.2238 87.6315 33.8584 85.584 31.1277L89.2179 27.0978C89.91 27.9205 90.7205 28.5845 91.6509 29.0908C92.5808 29.5971 93.4065 29.8508 94.1275 29.8508C94.9059 29.8508 95.5333 29.6604 96.009 29.2776C96.485 28.8966 96.723 28.4556 96.723 27.957C96.723 27.0319 95.8649 26.1294 94.1491 25.2483L92.159 24.2351C88.3522 22.2828 86.4494 19.8381 86.4494 16.9014C86.4494 15.0073 87.1666 13.3888 88.601 12.0453C90.036 10.7021 91.8709 10.0304 94.1062 10.0304C95.6339 10.0304 97.0727 10.3713 98.4208 11.0543C99.7689 11.7371 100.912 12.7171 101.849 13.9943Z" fill="white"/>
<path d="M124.603 19.6321C124.213 18.2966 123.444 17.2097 122.296 16.3728C121.147 15.536 119.815 15.1175 118.298 15.1175C116.652 15.1175 115.208 15.5873 113.966 16.527C113.186 17.1144 112.464 18.149 111.799 19.6318H124.603V19.6321ZM130.508 24.3673H111.539C111.813 26.0701 112.545 27.4246 113.735 28.4304C114.924 29.4362 116.441 29.939 118.287 29.939C120.494 29.939 122.389 29.1535 123.976 27.5828L128.951 29.961C127.711 31.7526 126.225 33.0774 124.495 33.9359C122.765 34.795 120.71 35.2242 118.331 35.2242C114.639 35.2242 111.633 34.0393 109.311 31.668C106.99 29.2967 105.829 26.3273 105.829 22.7595C105.829 19.1035 106.986 16.0684 109.301 13.6532C111.615 11.2382 114.517 10.0302 118.006 10.0302C121.712 10.0302 124.726 11.2382 127.048 13.6532C129.369 16.0684 130.53 19.2579 130.53 23.2221L130.508 24.3673Z" fill="white"/>
<path d="M132.813 10.0302V10.7325H131.764V13.5816H130.936V10.7325H129.881V10.0302H132.813Z" fill="white"/>
<path d="M134.708 13.5816L133.848 10.6859V13.5816H133.163V10.0302H134.436L135.048 12.1559L135.692 10.0302H136.968V13.5816H136.145V10.6859L135.267 13.5816H134.708Z" fill="white"/>
</svg>